<svg id="Layer_1" data-name="Layer 1" xmlns="http://www.w3.org/2000/svg" viewBox="0 0 638 134.02"><defs><style>.cls-1{fill:#26b15d;}</style></defs><title>Easypaisa app logo vector</title><path d="M415,538.89c12.18,15.12,23.79,14.8,33.16,10.7,8.56-3.75,13.11-13.9,11.6-25.19-.23.1-.59.14-.65.29-5.41,13.41-19.32,15.31-30.24,12.36-9.7-2.61-14.66-9.63-16.23-19.17a68.36,68.36,0,0,1-.79-10.7c-.09-14.45,0-28.89,0-43.71h17.29c.06,1.3.18,2.7.18,4.1,0,11.82,0,23.63,0,35.44a51.14,51.14,0,0,0,.57,7.52c1.44,9.44,7.22,13.09,16.62,10.61,7.63-2,12.71-8.95,13.2-19.33.52-11,.38-22,.52-33,0-1.69,0-3.38,0-5.36h16.84a9,9,0,0,1,.4,1.89c0,21.5.52,43-.22,64.49-.88,25.36-22.53,40.94-47.48,35-8.29-2-15.88-5.31-21.87-11.64-1.76-1.86-2.1-3.32-.19-5.38C410.25,545.09,412.44,542.08,415,538.89Z" transform="translate(-181 -432.99)"/><path d="M310.77,464.21v11c-5.35-7.8-13.08-12.7-21.67-12.7-16.15,0-29.23,17.27-29.23,38.58S273,539.66,289.1,539.66c8.59,0,16.32-4.91,21.67-12.71v12.71h17.57V464.21Zm-16.64,59.61c-9.54,0-17.27-10.18-17.27-22.75s7.73-22.75,17.27-22.75,17.28,10.19,17.28,22.75S303.68,523.82,294.13,523.82Z" transform="translate(-181 -432.99)"/><path d="M617.44,464.21v11c-5.35-7.8-13.08-12.7-21.68-12.7-16.14,0-29.23,17.27-29.23,38.58s13.09,38.59,29.23,38.59c8.6,0,16.33-4.91,21.68-12.71v12.71H635V464.21ZM600.8,523.82c-9.54,0-17.28-10.18-17.28-22.75s7.74-22.75,17.28-22.75,17.28,10.19,17.28,22.75S610.34,523.82,600.8,523.82Z" transform="translate(-181 -432.99)"/><path d="M801.44,464.21v11c-5.35-7.8-13.08-12.7-21.68-12.7-16.14,0-29.23,17.27-29.23,38.58s13.09,38.59,29.23,38.59c8.6,0,16.33-4.91,21.68-12.71v12.71H819V464.21ZM784.8,523.82c-9.54,0-17.28-10.18-17.28-22.75s7.74-22.75,17.28-22.75,17.28,10.19,17.28,22.75S794.34,523.82,784.8,523.82Z" transform="translate(-181 -432.99)"/><rect x="467.02" y="29.5" width="18.04" height="77.17"/><circle class="cls-1" cx="476.05" cy="11.13" r="11.13"/><path d="M530.16,463.73c-8.41,0-16,4.41-21.44,11.48V462.49H491.06V567h17.66V528.27c5.44,7.08,13,11.48,21.44,11.48,16.53,0,29.94-17,29.94-38S546.69,463.73,530.16,463.73Zm-5,60.09c-7.45,0-13.82-5.74-16.41-13.87V493.73c2.59-8.13,9-13.87,16.41-13.87,9.76,0,17.66,9.84,17.66,22S534.89,523.82,525.13,523.82Z" transform="translate(-181 -432.99)"/><path d="M389.24,489.85v0l12.57-6.58c-.19-5.84-4.06-11.12-9-14.23s-10.84-4.35-16.66-4.95c-9.38-1-19.45-.21-27.24,5.1s-12.29,16.25-7.94,24.63c3.56,6.86,11.6,10.06,19.19,11.53s15.58,1.85,22.43,5.43c1.69.89,3.45,2.21,3.63,4.12s-1.16,3.4-2.55,4.56a21.2,21.2,0,0,1-34.26-11.56l-13.9,7.26c-2.93,1.56,7.92,15,9.31,16.18,10.28,9,25.81,10.37,38.47,6.17,8.91-2.95,17.34-9.64,19.12-18.85a19.34,19.34,0,0,0-4.65-16.47c-4.29-4.68-10.63-6.92-16.86-8.17s-12.65-1.7-18.7-3.63c-2.62-.84-5.59-2.6-5.46-5.35.12-2.55,2.87-4.06,5.3-4.85,5.13-1.67,10.72-2.37,15.91-.91S387.8,484.67,389.24,489.85Z" transform="translate(-181 -432.99)"/><path d="M729,489.85v0l12.57-6.58c-.19-5.84-4.07-11.12-9-14.23s-10.84-4.35-16.66-4.95c-9.38-1-19.45-.21-27.24,5.1s-12.29,16.25-7.94,24.63c3.56,6.86,11.6,10.06,19.18,11.53s15.59,1.85,22.44,5.43c1.69.89,3.45,2.21,3.63,4.12s-1.16,3.4-2.55,4.56a21.2,21.2,0,0,1-34.26-11.56l-13.9,7.26c-2.93,1.56,7.92,15,9.31,16.18,10.28,9,25.81,10.37,38.47,6.17,8.91-2.95,17.34-9.64,19.12-18.85a19.38,19.38,0,0,0-4.65-16.47c-4.29-4.68-10.63-6.92-16.86-8.17s-12.65-1.7-18.7-3.63c-2.62-.84-5.6-2.6-5.46-5.35.12-2.55,2.87-4.06,5.3-4.85,5.13-1.67,10.72-2.37,15.91-.91S727.58,484.67,729,489.85Z" transform="translate(-181 -432.99)"/><path d="M244.9,475.64s-13.06-20-41.47-10c0,0-15.36,4.23-22.27,28.8,0,0,14.21,22.65,48.76,15.36C229.92,509.81,259.48,502.13,244.9,475.64Zm-18.63,20c-5.77,2.73-14.65,2-20.67.43-.43-.11-8.29-2.88-7.93-3.56,5.77-10.67,20.87-20.51,31.4-9.56a8.72,8.72,0,0,1,2.3,3.81C232.27,490.37,229.62,494.08,226.27,495.66Z" transform="translate(-181 -432.99)"/><path class="cls-1" d="M181.16,501.81s-3.45,26.81,21.5,35.64,44.54-7.3,50.3-17.28l-14.21-8.44s-11.13,23-43,8.06C195.75,519.79,184.23,513,181.16,501.81Z" transform="translate(-181 -432.99)"/></svg>